<svg width="10" height="10" xmlns="http://www.w3.org/2000/svg" xmlns:xlink="http://www.w3.org/1999/xlink" xml:space="preserve" overflow="hidden"><defs><clipPath id="clip0"><rect x="-85" y="248" width="10" height="10"/></clipPath></defs><g clip-path="url(#clip0)" transform="translate(85 -248)"><path d="M-80 248C-82.7622 248-85 250.238-85 253-85 255.391-83.32 257.391-81.0756 257.882L-81.0756 253.824C-81.0756 253.627-81.0444 253.462-80.9222 253.336-80.7978 253.207-80.6311 253.169-80.4333 253.169L-79.5844 253.169C-79.3867 253.169-79.2089 253.202-79.0822 253.324-78.9533 253.449-78.9289 253.624-78.9289 253.824L-78.9289 257.882C-76.6822 257.391-75.0022 255.393-75.0022 253-75 250.238-77.2378 248-80 248L-80 248ZM-80.06 249.716-79.9422 249.716C-79.5644 249.716-79.2733 249.778-79.08 249.969-78.8867 250.16-78.8178 250.456-78.8178 250.829L-78.8178 250.96C-78.8178 251.338-78.8844 251.64-79.08 251.833-79.2756 252.024-79.58 252.087-79.9533 252.087L-80.06 252.087C-80.4378 252.087-80.7289 252.027-80.9222 251.833-81.1156 251.64-81.1844 251.338-81.1844 250.96L-81.1844 250.829C-81.1844 250.456-81.1156 250.16-80.9222 249.969-80.7267 249.778-80.4378 249.716-80.06 249.716L-80.06 249.716Z" fill="#FFFFFF" fill-rule="evenodd"/></g></svg>